<svg width="99" height="61" viewBox="0 0 99 61" fill="none" xmlns="http://www.w3.org/2000/svg">
<path d="M5.15321 32.8544L5.82862 33.5298L5.15321 32.8544C4.99666 33.0109 4.84856 33.0793 4.58555 33.0793H4H2V35.0793V35.5298V37.5298H4H20.1703H22.1703V35.5298V35.0793V33.0793H20.1703H19.5847C19.3281 33.0793 19.1471 33.0124 18.9529 32.8349C18.7588 32.6341 18.702 32.4653 18.702 32.2417V25.3995L26.4301 36.1134C27.9426 38.2125 29.4279 40.0296 30.8878 41.553L30.8901 41.5554C34.8711 45.6956 39.1863 48.0247 43.8176 48.0247C46.9979 48.0247 50.2025 47.0548 53.4054 45.2431L54.6427 44.5432L54.3884 43.1445L54.2984 42.6491L54.0226 41.1322L52.4855 41.0128C49.7532 40.8006 47.3875 39.922 45.3345 38.3902C43.2428 36.8065 40.5795 33.8281 37.3398 29.2808C37.3397 29.2808 37.3397 29.2807 37.3397 29.2806C37.3394 29.2803 37.3391 29.2799 37.3388 29.2795L27.9141 16.0273L34.619 7.91096C35.5151 6.89978 36.6075 6.40538 38.0521 6.40538H38.2323H40.2323V4.40538V4V2H38.2323H27.3771H25.3771V4V4.40538V6.40538H26.5144L18.702 17.0616V7.28928C18.7172 7.02764 18.7965 6.85776 18.9534 6.69438C19.1475 6.51723 19.3283 6.45042 19.5847 6.45042H20.1703H22.1703V4.45042V4V2H20.1703H4H2V4V4.45042V6.45042H4H4.58555C4.84857 6.45042 4.99667 6.51886 5.15321 6.6754L5.17232 6.69451L5.19193 6.7131C5.37796 6.88933 5.45385 7.05139 5.46827 7.28994V32.1947C5.4534 32.4399 5.37155 32.636 5.15321 32.8544ZM27.8629 6.40675C27.8629 6.40677 27.8619 6.40668 27.8601 6.40644L27.8629 6.40675Z" fill="url(#paint0_linear)" stroke="black" stroke-width="4"/>
<path d="M88.1051 4.41458L88.0958 4.41657C85.0701 5.06494 82.4874 6.75588 80.3538 9.3298L80.3532 9.33055C78.5667 11.4878 77.2872 14.0134 76.4978 16.8738C76.4977 16.8745 76.4975 16.8751 76.4973 16.8757L73.5027 27.6376L66.9419 15.5101L66.4439 14.5895L65.4037 14.4739L64.9983 14.4289L63.5889 14.2723L62.9748 15.5504L57.1509 27.6693L53.9565 19.6978C53.9433 19.656 53.9326 19.6195 53.9241 19.5878H54.1474H56.1474V17.5878V17.1373V15.1373H54.1474H37.9771H35.9771V17.1373V17.5878V19.5878H37.9771H38.3375C38.6931 19.5878 39.0572 19.6818 39.4596 19.9268L39.4756 19.9365L39.4918 19.9459C39.8024 20.1271 40.1073 20.427 40.3745 20.953L49.1862 44.3061C48.666 45.3953 48.0256 46.6311 47.2614 48.0162L47.2583 48.0218C46.6852 49.0684 45.6752 50.3956 44.1426 52.0156C42.8801 53.3255 41.4821 54.0762 39.9217 54.3557L38.2743 54.6507V56.3243V56.7748V58.4384L39.9101 58.7413C40.8242 58.9106 41.7126 59 42.5714 59C44.4448 59 46.3512 58.2584 48.2338 57.0694L48.2546 57.0562L48.2752 57.0425C49.0212 56.5452 49.732 55.954 50.4095 55.2784C51.1128 54.6066 51.8815 53.7534 52.7116 52.7396C53.7027 51.5677 54.6398 49.9939 55.5433 48.0948L62.1907 34.5142L70.7125 50.5946L71.2761 51.658H72.4797H72.9301H74.9301V49.658C74.9301 47.9518 75.1222 46.4811 75.4785 45.2261L83.8503 17.9953L83.8514 17.9916C84.8115 14.8471 86.1871 12.6025 87.8818 11.1009C89.5567 9.61695 91.6713 8.74393 94.3376 8.54691L96.1902 8.41002V6.55235V6.10193V4.32758L94.4285 4.11617C93.5879 4.0153 92.6967 3.9668 91.7579 3.9668C90.6984 3.9668 89.4698 4.12897 88.1051 4.41458Z" fill="url(#paint1_linear)" stroke="black" stroke-width="4"/>
<defs>
<linearGradient id="paint0_linear" x1="21.333" y1="4.54664" x2="21.3331" y2="46.3921" gradientUnits="userSpaceOnUse">
<stop stop-color="#FFDDAA"/>
<stop offset="0.260417" stop-color="#884411" stop-opacity="0.75"/>
<stop offset="0.541667" stop-color="#FFDDAA"/>
<stop offset="0.84375" stop-color="#884411" stop-opacity="0.75"/>
</linearGradient>
<linearGradient id="paint1_linear" x1="62.1382" y1="17.684" x2="62.1383" y2="59.5295" gradientUnits="userSpaceOnUse">
<stop stop-color="#FFDDAA"/>
<stop offset="0.260417" stop-color="#884411" stop-opacity="0.75"/>
<stop offset="0.541667" stop-color="#FFDDAA"/>
<stop offset="0.84375" stop-color="#884411" stop-opacity="0.75"/>
</linearGradient>
</defs>
</svg>
