<svg width="317" height="125" viewBox="0 0 317 125" fill="none" xmlns="http://www.w3.org/2000/svg">
<mask id="path-1-outside-1" maskUnits="userSpaceOnUse" x="0" y="0" width="180" height="48" fill="black">
<rect fill="white" width="180" height="48"/>
<path d="M4.49858 34.1915C5.16334 34.1915 5.72584 33.9614 6.18606 33.5012C6.67185 33.0154 6.92753 32.4401 6.9531 31.7754V10.49C6.92753 9.82526 6.67185 9.26276 6.18606 8.80254C5.72584 8.34232 5.16334 8.11221 4.49858 8.11221H4V7.72869H17.7683V8.11221H17.2698C16.605 8.11221 16.0297 8.34232 15.5439 8.80254C15.0837 9.26276 14.8408 9.82526 14.8152 10.49V31.7754C14.8152 32.4401 15.0581 33.0154 15.5439 33.5012C16.0297 33.9614 16.605 34.1915 17.2698 34.1915H17.7683V34.575H4V34.1915H4.49858ZM45.2283 41.3633C42.6971 42.7951 40.2554 43.511 37.9031 43.511C34.5793 43.511 31.3194 41.8491 28.1234 38.5253C26.9472 37.298 25.7328 35.8151 24.4799 34.0765L16.0425 22.3791L25.2086 9.87639C25.3876 9.62072 25.4771 9.3906 25.4771 9.18606C25.4771 8.98152 25.4387 8.80254 25.362 8.64913C25.1831 8.26561 24.8251 8.07385 24.2882 8.07385H23.9047V7.72869H33.1475V8.07385H32.9941C31.281 8.07385 29.8748 8.70027 28.7754 9.9531L22.2172 17.892L30.9998 30.2413C33.7867 34.1532 36.1773 36.8634 38.1716 38.3719C40.1914 39.8804 42.5181 40.7369 45.1516 40.9415L45.2283 41.3633Z"/>
<path d="M66.7156 8.11221C66.0764 8.11221 65.5267 8.34232 65.0665 8.80254C64.6063 9.2372 64.3634 9.77412 64.3378 10.4133V30.2029C64.3378 32.095 64.4656 33.5523 64.7213 34.575L64.8364 35.112H64.4912L46.1206 18.774V31.8521C46.1206 32.7725 46.5169 33.4501 47.3095 33.8847C47.6675 34.0893 48.051 34.1915 48.4601 34.1915H49.1888V34.575H35.152V34.1915H35.8806C36.5198 34.1915 37.0696 33.9742 37.5298 33.5395C37.99 33.0793 38.2201 32.5168 38.2201 31.8521V11.9474C38.2201 10.1576 38.0923 8.73862 37.8366 7.69034L37.7215 7.15341H38.1051L56.4756 23.4913V10.4517C56.4501 9.78691 56.2072 9.2372 55.747 8.80254C55.2867 8.34232 54.737 8.11221 54.0978 8.11221H53.3691V7.72869H67.4059V8.11221H66.7156Z"/>
<path d="M69.0677 34.1915C69.7324 34.1915 70.2949 33.9614 70.7551 33.5012C71.2409 33.0154 71.4966 32.4401 71.5222 31.7754V10.49C71.4966 9.82526 71.2409 9.26276 70.7551 8.80254C70.2949 8.34232 69.7324 8.11221 69.0677 8.11221H68.5691V7.72869H82.3374V8.11221H81.8389C81.1741 8.11221 80.5988 8.34232 80.113 8.80254C79.6528 9.26276 79.4099 9.82526 79.3843 10.49V31.7754C79.3843 32.4401 79.6272 33.0154 80.113 33.5012C80.5988 33.9614 81.1741 34.1915 81.8389 34.1915H82.3374V34.575H68.5691V34.1915H69.0677Z"/>
<path d="M98.8491 35.112C94.2725 35.112 90.629 33.8719 87.9188 31.3918C85.2342 28.8862 83.8919 25.4601 83.8919 21.1135C83.8919 16.7414 85.247 13.3281 87.9572 10.8735C90.6674 8.41902 94.4259 7.19176 99.2327 7.19176C101.304 7.19176 103.439 7.37074 105.637 7.72869C107.836 8.06107 109.511 8.47016 110.662 8.95595L110.278 16.2812H109.933C108.603 11.5 105.676 9.10936 101.15 9.10936C95.2696 9.10936 92.3293 13.2258 92.3293 21.4587C92.3293 25.1916 92.9302 28.0808 94.1319 30.1262C95.3591 32.1717 97.2128 33.1944 99.6929 33.1944C101.048 33.1944 102.224 32.8364 103.221 32.1205C104.244 31.3791 104.755 30.3691 104.755 29.0907L104.794 23.8365C104.794 23.274 104.615 22.8521 104.257 22.5709C103.924 22.2641 103.451 22.1107 102.838 22.1107H102.224V21.7271H115.11V22.1107H114.535C113.896 22.1107 113.41 22.2641 113.078 22.5709C112.745 22.8521 112.592 23.274 112.617 23.8365V30.1646C111.186 31.9799 108.591 33.3734 104.832 34.3449C102.889 34.8563 100.895 35.112 98.8491 35.112Z"/>
<path d="M134.437 34.1915C135.102 34.1915 135.665 33.9614 136.125 33.5012C136.611 33.041 136.866 32.4785 136.892 31.8137V22.1107H126.575V31.7754C126.601 32.7214 127.01 33.4245 127.802 33.8847C128.186 34.0893 128.595 34.1915 129.03 34.1915H129.528V34.575H115.76V34.1915H116.259C116.923 34.1915 117.486 33.9614 117.946 33.5012C118.432 33.0154 118.687 32.4401 118.713 31.7754V10.49C118.687 9.82526 118.432 9.26276 117.946 8.80254C117.486 8.34232 116.923 8.11221 116.259 8.11221H115.76V7.72869H129.528V8.11221H129.03C128.365 8.11221 127.79 8.34232 127.304 8.80254C126.844 9.26276 126.601 9.82526 126.575 10.49V20.1931H136.892V10.49C136.866 9.82526 136.611 9.26276 136.125 8.80254C135.665 8.34232 135.102 8.11221 134.437 8.11221H133.939V7.72869H147.707V8.11221H147.209C146.288 8.11221 145.585 8.50851 145.099 9.30112C144.895 9.68464 144.78 10.0937 144.754 10.5284V31.7754C144.78 32.4401 145.022 33.0154 145.483 33.5012C145.968 33.9614 146.544 34.1915 147.209 34.1915H147.707V34.575H133.939V34.1915H134.437Z"/>
<path d="M166.177 9.60793V31.8137C166.202 32.4785 166.445 33.041 166.905 33.5012C167.391 33.9614 167.966 34.1915 168.631 34.1915H169.13V34.575H155.361V34.1915H155.86C156.525 34.1915 157.087 33.9614 157.547 33.5012C158.033 33.041 158.289 32.4913 158.314 31.8521V9.60793H154.518C152.984 9.6335 151.782 10.0937 150.912 10.9886C150.043 11.8579 149.609 13.0596 149.609 14.5937V14.8621L149.225 14.9005V7C149.583 7.15341 150.222 7.30682 151.143 7.46022C152.089 7.61363 152.958 7.69034 153.751 7.69034H170.74C171.533 7.69034 172.39 7.61363 173.31 7.46022C174.23 7.30682 174.882 7.15341 175.266 7V14.9005L174.882 14.8621V14.5937C174.882 12.5227 174.115 11.0653 172.581 10.2216C171.84 9.83804 170.958 9.6335 169.935 9.60793H166.177Z"/>
</mask>
<path d="M4.49858 34.1915C5.16334 34.1915 5.72584 33.9614 6.18606 33.5012C6.67185 33.0154 6.92753 32.4401 6.9531 31.7754V10.49C6.92753 9.82526 6.67185 9.26276 6.18606 8.80254C5.72584 8.34232 5.16334 8.11221 4.49858 8.11221H4V7.72869H17.7683V8.11221H17.2698C16.605 8.11221 16.0297 8.34232 15.5439 8.80254C15.0837 9.26276 14.8408 9.82526 14.8152 10.49V31.7754C14.8152 32.4401 15.0581 33.0154 15.5439 33.5012C16.0297 33.9614 16.605 34.1915 17.2698 34.1915H17.7683V34.575H4V34.1915H4.49858ZM45.2283 41.3633C42.6971 42.7951 40.2554 43.511 37.9031 43.511C34.5793 43.511 31.3194 41.8491 28.1234 38.5253C26.9472 37.298 25.7328 35.8151 24.4799 34.0765L16.0425 22.3791L25.2086 9.87639C25.3876 9.62072 25.4771 9.3906 25.4771 9.18606C25.4771 8.98152 25.4387 8.80254 25.362 8.64913C25.1831 8.26561 24.8251 8.07385 24.2882 8.07385H23.9047V7.72869H33.1475V8.07385H32.9941C31.281 8.07385 29.8748 8.70027 28.7754 9.9531L22.2172 17.892L30.9998 30.2413C33.7867 34.1532 36.1773 36.8634 38.1716 38.3719C40.1914 39.8804 42.5181 40.7369 45.1516 40.9415L45.2283 41.3633Z" fill="url(#paint0_linear)"/>
<path d="M66.7156 8.11221C66.0764 8.11221 65.5267 8.34232 65.0665 8.80254C64.6063 9.2372 64.3634 9.77412 64.3378 10.4133V30.2029C64.3378 32.095 64.4656 33.5523 64.7213 34.575L64.8364 35.112H64.4912L46.1206 18.774V31.8521C46.1206 32.7725 46.5169 33.4501 47.3095 33.8847C47.6675 34.0893 48.051 34.1915 48.4601 34.1915H49.1888V34.575H35.152V34.1915H35.8806C36.5198 34.1915 37.0696 33.9742 37.5298 33.5395C37.99 33.0793 38.2201 32.5168 38.2201 31.8521V11.9474C38.2201 10.1576 38.0923 8.73862 37.8366 7.69034L37.7215 7.15341H38.1051L56.4756 23.4913V10.4517C56.4501 9.78691 56.2072 9.2372 55.747 8.80254C55.2867 8.34232 54.737 8.11221 54.0978 8.11221H53.3691V7.72869H67.4059V8.11221H66.7156Z" fill="url(#paint1_linear)"/>
<path d="M69.0677 34.1915C69.7324 34.1915 70.2949 33.9614 70.7551 33.5012C71.2409 33.0154 71.4966 32.4401 71.5222 31.7754V10.49C71.4966 9.82526 71.2409 9.26276 70.7551 8.80254C70.2949 8.34232 69.7324 8.11221 69.0677 8.11221H68.5691V7.72869H82.3374V8.11221H81.8389C81.1741 8.11221 80.5988 8.34232 80.113 8.80254C79.6528 9.26276 79.4099 9.82526 79.3843 10.49V31.7754C79.3843 32.4401 79.6272 33.0154 80.113 33.5012C80.5988 33.9614 81.1741 34.1915 81.8389 34.1915H82.3374V34.575H68.5691V34.1915H69.0677Z" fill="url(#paint2_linear)"/>
<path d="M98.8491 35.112C94.2725 35.112 90.629 33.8719 87.9188 31.3918C85.2342 28.8862 83.8919 25.4601 83.8919 21.1135C83.8919 16.7414 85.247 13.3281 87.9572 10.8735C90.6674 8.41902 94.4259 7.19176 99.2327 7.19176C101.304 7.19176 103.439 7.37074 105.637 7.72869C107.836 8.06107 109.511 8.47016 110.662 8.95595L110.278 16.2812H109.933C108.603 11.5 105.676 9.10936 101.15 9.10936C95.2696 9.10936 92.3293 13.2258 92.3293 21.4587C92.3293 25.1916 92.9302 28.0808 94.1319 30.1262C95.3591 32.1717 97.2128 33.1944 99.6929 33.1944C101.048 33.1944 102.224 32.8364 103.221 32.1205C104.244 31.3791 104.755 30.3691 104.755 29.0907L104.794 23.8365C104.794 23.274 104.615 22.8521 104.257 22.5709C103.924 22.2641 103.451 22.1107 102.838 22.1107H102.224V21.7271H115.11V22.1107H114.535C113.896 22.1107 113.41 22.2641 113.078 22.5709C112.745 22.8521 112.592 23.274 112.617 23.8365V30.1646C111.186 31.9799 108.591 33.3734 104.832 34.3449C102.889 34.8563 100.895 35.112 98.8491 35.112Z" fill="url(#paint3_linear)"/>
<path d="M134.437 34.1915C135.102 34.1915 135.665 33.9614 136.125 33.5012C136.611 33.041 136.866 32.4785 136.892 31.8137V22.1107H126.575V31.7754C126.601 32.7214 127.01 33.4245 127.802 33.8847C128.186 34.0893 128.595 34.1915 129.03 34.1915H129.528V34.575H115.76V34.1915H116.259C116.923 34.1915 117.486 33.9614 117.946 33.5012C118.432 33.0154 118.687 32.4401 118.713 31.7754V10.49C118.687 9.82526 118.432 9.26276 117.946 8.80254C117.486 8.34232 116.923 8.11221 116.259 8.11221H115.76V7.72869H129.528V8.11221H129.03C128.365 8.11221 127.79 8.34232 127.304 8.80254C126.844 9.26276 126.601 9.82526 126.575 10.49V20.1931H136.892V10.49C136.866 9.82526 136.611 9.26276 136.125 8.80254C135.665 8.34232 135.102 8.11221 134.437 8.11221H133.939V7.72869H147.707V8.11221H147.209C146.288 8.11221 145.585 8.50851 145.099 9.30112C144.895 9.68464 144.78 10.0937 144.754 10.5284V31.7754C144.78 32.4401 145.022 33.0154 145.483 33.5012C145.968 33.9614 146.544 34.1915 147.209 34.1915H147.707V34.575H133.939V34.1915H134.437Z" fill="url(#paint4_linear)"/>
<path d="M166.177 9.60793V31.8137C166.202 32.4785 166.445 33.041 166.905 33.5012C167.391 33.9614 167.966 34.1915 168.631 34.1915H169.13V34.575H155.361V34.1915H155.86C156.525 34.1915 157.087 33.9614 157.547 33.5012C158.033 33.041 158.289 32.4913 158.314 31.8521V9.60793H154.518C152.984 9.6335 151.782 10.0937 150.912 10.9886C150.043 11.8579 149.609 13.0596 149.609 14.5937V14.8621L149.225 14.9005V7C149.583 7.15341 150.222 7.30682 151.143 7.46022C152.089 7.61363 152.958 7.69034 153.751 7.69034H170.74C171.533 7.69034 172.39 7.61363 173.31 7.46022C174.23 7.30682 174.882 7.15341 175.266 7V14.9005L174.882 14.8621V14.5937C174.882 12.5227 174.115 11.0653 172.581 10.2216C171.84 9.83804 170.958 9.6335 169.935 9.60793H166.177Z" fill="url(#paint5_linear)"/>
<path d="M4.49858 34.1915C5.16334 34.1915 5.72584 33.9614 6.18606 33.5012C6.67185 33.0154 6.92753 32.4401 6.9531 31.7754V10.49C6.92753 9.82526 6.67185 9.26276 6.18606 8.80254C5.72584 8.34232 5.16334 8.11221 4.49858 8.11221H4V7.72869H17.7683V8.11221H17.2698C16.605 8.11221 16.0297 8.34232 15.5439 8.80254C15.0837 9.26276 14.8408 9.82526 14.8152 10.49V31.7754C14.8152 32.4401 15.0581 33.0154 15.5439 33.5012C16.0297 33.9614 16.605 34.1915 17.2698 34.1915H17.7683V34.575H4V34.1915H4.49858ZM45.2283 41.3633C42.6971 42.7951 40.2554 43.511 37.9031 43.511C34.5793 43.511 31.3194 41.8491 28.1234 38.5253C26.9472 37.298 25.7328 35.8151 24.4799 34.0765L16.0425 22.3791L25.2086 9.87639C25.3876 9.62072 25.4771 9.3906 25.4771 9.18606C25.4771 8.98152 25.4387 8.80254 25.362 8.64913C25.1831 8.26561 24.8251 8.07385 24.2882 8.07385H23.9047V7.72869H33.1475V8.07385H32.9941C31.281 8.07385 29.8748 8.70027 28.7754 9.9531L22.2172 17.892L30.9998 30.2413C33.7867 34.1532 36.1773 36.8634 38.1716 38.3719C40.1914 39.8804 42.5181 40.7369 45.1516 40.9415L45.2283 41.3633Z" stroke="black" stroke-width="8" mask="url(#path-1-outside-1)"/>
<path d="M66.7156 8.11221C66.0764 8.11221 65.5267 8.34232 65.0665 8.80254C64.6063 9.2372 64.3634 9.77412 64.3378 10.4133V30.2029C64.3378 32.095 64.4656 33.5523 64.7213 34.575L64.8364 35.112H64.4912L46.1206 18.774V31.8521C46.1206 32.7725 46.5169 33.4501 47.3095 33.8847C47.6675 34.0893 48.051 34.1915 48.4601 34.1915H49.1888V34.575H35.152V34.1915H35.8806C36.5198 34.1915 37.0696 33.9742 37.5298 33.5395C37.99 33.0793 38.2201 32.5168 38.2201 31.8521V11.9474C38.2201 10.1576 38.0923 8.73862 37.8366 7.69034L37.7215 7.15341H38.1051L56.4756 23.4913V10.4517C56.4501 9.78691 56.2072 9.2372 55.747 8.80254C55.2867 8.34232 54.737 8.11221 54.0978 8.11221H53.3691V7.72869H67.4059V8.11221H66.7156Z" stroke="black" stroke-width="8" mask="url(#path-1-outside-1)"/>
<path d="M69.0677 34.1915C69.7324 34.1915 70.2949 33.9614 70.7551 33.5012C71.2409 33.0154 71.4966 32.4401 71.5222 31.7754V10.49C71.4966 9.82526 71.2409 9.26276 70.7551 8.80254C70.2949 8.34232 69.7324 8.11221 69.0677 8.11221H68.5691V7.72869H82.3374V8.11221H81.8389C81.1741 8.11221 80.5988 8.34232 80.113 8.80254C79.6528 9.26276 79.4099 9.82526 79.3843 10.49V31.7754C79.3843 32.4401 79.6272 33.0154 80.113 33.5012C80.5988 33.9614 81.1741 34.1915 81.8389 34.1915H82.3374V34.575H68.5691V34.1915H69.0677Z" stroke="black" stroke-width="8" mask="url(#path-1-outside-1)"/>
<path d="M98.8491 35.112C94.2725 35.112 90.629 33.8719 87.9188 31.3918C85.2342 28.8862 83.8919 25.4601 83.8919 21.1135C83.8919 16.7414 85.247 13.3281 87.9572 10.8735C90.6674 8.41902 94.4259 7.19176 99.2327 7.19176C101.304 7.19176 103.439 7.37074 105.637 7.72869C107.836 8.06107 109.511 8.47016 110.662 8.95595L110.278 16.2812H109.933C108.603 11.5 105.676 9.10936 101.15 9.10936C95.2696 9.10936 92.3293 13.2258 92.3293 21.4587C92.3293 25.1916 92.9302 28.0808 94.1319 30.1262C95.3591 32.1717 97.2128 33.1944 99.6929 33.1944C101.048 33.1944 102.224 32.8364 103.221 32.1205C104.244 31.3791 104.755 30.3691 104.755 29.0907L104.794 23.8365C104.794 23.274 104.615 22.8521 104.257 22.5709C103.924 22.2641 103.451 22.1107 102.838 22.1107H102.224V21.7271H115.11V22.1107H114.535C113.896 22.1107 113.41 22.2641 113.078 22.5709C112.745 22.8521 112.592 23.274 112.617 23.8365V30.1646C111.186 31.9799 108.591 33.3734 104.832 34.3449C102.889 34.8563 100.895 35.112 98.8491 35.112Z" stroke="black" stroke-width="8" mask="url(#path-1-outside-1)"/>
<path d="M134.437 34.1915C135.102 34.1915 135.665 33.9614 136.125 33.5012C136.611 33.041 136.866 32.4785 136.892 31.8137V22.1107H126.575V31.7754C126.601 32.7214 127.01 33.4245 127.802 33.8847C128.186 34.0893 128.595 34.1915 129.03 34.1915H129.528V34.575H115.76V34.1915H116.259C116.923 34.1915 117.486 33.9614 117.946 33.5012C118.432 33.0154 118.687 32.4401 118.713 31.7754V10.49C118.687 9.82526 118.432 9.26276 117.946 8.80254C117.486 8.34232 116.923 8.11221 116.259 8.11221H115.76V7.72869H129.528V8.11221H129.03C128.365 8.11221 127.79 8.34232 127.304 8.80254C126.844 9.26276 126.601 9.82526 126.575 10.49V20.1931H136.892V10.49C136.866 9.82526 136.611 9.26276 136.125 8.80254C135.665 8.34232 135.102 8.11221 134.437 8.11221H133.939V7.72869H147.707V8.11221H147.209C146.288 8.11221 145.585 8.50851 145.099 9.30112C144.895 9.68464 144.78 10.0937 144.754 10.5284V31.7754C144.78 32.4401 145.022 33.0154 145.483 33.5012C145.968 33.9614 146.544 34.1915 147.209 34.1915H147.707V34.575H133.939V34.1915H134.437Z" stroke="black" stroke-width="8" mask="url(#path-1-outside-1)"/>
<path d="M166.177 9.60793V31.8137C166.202 32.4785 166.445 33.041 166.905 33.5012C167.391 33.9614 167.966 34.1915 168.631 34.1915H169.13V34.575H155.361V34.1915H155.86C156.525 34.1915 157.087 33.9614 157.547 33.5012C158.033 33.041 158.289 32.4913 158.314 31.8521V9.60793H154.518C152.984 9.6335 151.782 10.0937 150.912 10.9886C150.043 11.8579 149.609 13.0596 149.609 14.5937V14.8621L149.225 14.9005V7C149.583 7.15341 150.222 7.30682 151.143 7.46022C152.089 7.61363 152.958 7.69034 153.751 7.69034H170.74C171.533 7.69034 172.39 7.61363 173.31 7.46022C174.23 7.30682 174.882 7.15341 175.266 7V14.9005L174.882 14.8621V14.5937C174.882 12.5227 174.115 11.0653 172.581 10.2216C171.84 9.83804 170.958 9.6335 169.935 9.60793H166.177Z" stroke="black" stroke-width="8" mask="url(#path-1-outside-1)"/>
<mask id="path-2-outside-2" maskUnits="userSpaceOnUse" x="47.6523" y="47.5302" width="270" height="47" fill="black">
<rect fill="white" x="47.6523" y="47.5302" width="270" height="47"/>
<path d="M90.6946 88.2742C88.7258 89.4247 86.7187 90 84.6733 90C82.6279 90 80.6847 89.6165 78.8438 88.8494C77.0285 88.0824 75.2387 86.7401 73.4745 84.8225C71.7359 82.9305 70.3041 80.6166 69.1791 77.8808L68.1436 75.3496H59.9363L58.4022 78.9163C58.2744 79.2487 58.2105 79.5171 58.2105 79.7217C58.2105 79.9262 58.2488 80.1563 58.3255 80.412C58.4278 80.6421 58.6196 80.8595 58.9008 81.064C59.2076 81.243 59.5272 81.3325 59.8596 81.3325H60.2048V81.716H51.6523V81.3325H51.9975C52.5855 81.3325 53.1608 81.1663 53.7233 80.8339C54.3114 80.4759 54.7971 79.9518 55.1807 79.2615L63.0045 62.0798C62.2374 59.9576 61.5982 58.5386 61.0869 57.8227C60.6011 57.0812 60.192 56.5188 59.8596 56.1352C59.246 55.4193 58.4789 54.8952 57.5585 54.5628C57.2005 54.435 56.7787 54.371 56.2929 54.371C55.8071 54.371 55.2574 54.4861 54.6437 54.7162L54.567 54.3327C56.6125 53.131 58.5684 52.5302 60.4349 52.5302C63.1962 52.5302 65.6891 53.8853 67.9135 56.5955C69.0385 58.0017 70.0484 59.702 70.9433 61.6963L77.0796 75.7714C78.2046 78.3538 79.0356 80.0924 79.5725 80.9873C80.1094 81.8566 80.5824 82.5981 80.9915 83.2117C81.4262 83.8509 81.848 84.4006 82.2571 84.8608C82.6662 85.3211 83.1137 85.7685 83.5994 86.2032C84.4432 86.9702 85.5043 87.5455 86.7827 87.929C87.3196 88.108 87.9076 88.1975 88.5468 88.1975C89.2116 88.1975 89.902 88.0952 90.6179 87.8906L90.6946 88.2742ZM60.78 73.432H67.3766L64.9604 67.4874C64.7559 67.0272 64.513 66.3752 64.2317 65.5315L60.78 73.432Z"/>
<path d="M95.8011 54.8696C100.608 54.8696 104.354 56.0585 107.038 58.4363C109.748 60.7886 111.103 64.0741 111.103 68.2928C111.103 72.5115 109.748 75.8098 107.038 78.1876C104.354 80.5399 100.608 81.716 95.8011 81.716H81.2657V81.3325H81.7642C82.429 81.3325 82.9915 81.1023 83.4517 80.6421C83.9375 80.1563 84.1932 79.5811 84.2188 78.9163V57.4392C84.2188 56.8256 83.9631 56.3142 83.4517 55.9051C82.9659 55.4705 82.4034 55.2531 81.7642 55.2531H81.304L81.2657 54.8696H95.8011ZM92.0809 56.7872V79.7984H95.034C97.4118 79.7984 99.2783 78.7884 100.633 76.7686C101.988 74.7231 102.666 71.8979 102.666 68.2928C102.666 64.6877 101.988 61.8752 100.633 59.8554C99.2783 57.8099 97.4118 56.7872 95.034 56.7872H92.0809Z"/>
<path d="M140.424 55.2531H140.079C138.75 55.2531 137.689 55.9435 136.896 57.3241L127.96 76.922C126.605 79.7856 125.876 81.6904 125.774 82.6364H125.429L113.271 57.3625C112.479 55.9563 111.405 55.2531 110.05 55.2531H109.743V54.8696H124.278V55.2531H123.933C123.396 55.2531 122.987 55.4321 122.706 55.7901C122.45 56.1224 122.322 56.442 122.322 56.7489C122.322 57.0557 122.373 57.3625 122.476 57.6693L127.96 70.824L133.674 57.6693C133.828 57.3369 133.905 57.0301 133.905 56.7489C133.905 56.442 133.764 56.1224 133.483 55.7901C133.201 55.4321 132.78 55.2531 132.217 55.2531H131.872V54.8696H140.424V55.2531Z"/>
<path d="M140.491 81.3325C141.155 81.3325 141.718 81.1023 142.178 80.6421C142.664 80.1563 142.92 79.5811 142.945 78.9163V57.6693C142.92 56.8511 142.574 56.1992 141.91 55.7134C141.501 55.4065 141.028 55.2531 140.491 55.2531H139.992V54.8696H156.982C158.081 54.8696 159.053 54.7801 159.897 54.6012C160.766 54.4222 161.316 54.2816 161.546 54.1793V62.0798H161.162V61.773C161.162 59.7275 160.421 58.2957 158.938 57.4776C158.222 57.0685 157.366 56.8511 156.368 56.8256H150.807V67.5258H154.988C156.215 67.5002 157.212 67.1039 157.979 66.3369C158.746 65.5442 159.13 64.5343 159.13 63.307V63.1536H159.513V73.8155H159.13V73.6237C159.13 72.422 158.746 71.4377 157.979 70.6706C157.212 69.878 156.228 69.4689 155.026 69.4434H150.807V79.76H155.525C157.391 79.76 159.04 79.1464 160.472 77.9191C161.904 76.6919 162.914 74.9916 163.502 72.8183H163.885L162.428 81.716H139.992V81.3325H140.491Z"/>
<path d="M196.715 55.2531C196.076 55.2531 195.526 55.4833 195.066 55.9435C194.606 56.3781 194.363 56.9151 194.337 57.5543V77.3439C194.337 79.2359 194.465 80.6933 194.721 81.716L194.836 82.2529H194.491L176.12 65.915V78.993C176.12 79.9134 176.517 80.591 177.309 81.0256C177.667 81.2302 178.051 81.3325 178.46 81.3325H179.188V81.716H165.152V81.3325H165.88C166.519 81.3325 167.069 81.1151 167.529 80.6805C167.99 80.2203 168.22 79.6578 168.22 78.993V59.0883C168.22 57.2986 168.092 55.8796 167.836 54.8313L167.721 54.2943H168.105L186.475 70.6323V57.5926C186.45 56.9278 186.207 56.3781 185.747 55.9435C185.286 55.4833 184.737 55.2531 184.097 55.2531H183.369V54.8696H197.406V55.2531H196.715Z"/>
<path d="M215.502 56.7489V78.9546C215.528 79.6194 215.771 80.1819 216.231 80.6421C216.717 81.1023 217.292 81.3325 217.957 81.3325H218.455V81.716H204.687V81.3325H205.186C205.85 81.3325 206.413 81.1023 206.873 80.6421C207.359 80.1819 207.615 79.6322 207.64 78.993V56.7489H203.843C202.309 56.7744 201.107 57.2347 200.238 58.1295C199.369 58.9988 198.934 60.2005 198.934 61.7346V62.0031L198.551 62.0414V54.1409C198.909 54.2943 199.548 54.4477 200.468 54.6012C201.414 54.7546 202.284 54.8313 203.076 54.8313H220.066C220.859 54.8313 221.715 54.7546 222.636 54.6012C223.556 54.4477 224.208 54.2943 224.592 54.1409V62.0414L224.208 62.0031V61.7346C224.208 59.6636 223.441 58.2062 221.907 57.3625C221.166 56.979 220.283 56.7744 219.261 56.7489H215.502Z"/>
<path d="M256.586 55.2531H255.973C255.436 55.2531 254.963 55.4321 254.554 55.7901C254.17 56.1224 253.966 56.5443 253.94 57.0557V71.8595C253.94 75.1067 252.93 77.6507 250.91 79.4916C248.916 81.3325 246.104 82.2529 242.473 82.2529C237.871 82.2529 234.432 81.358 232.156 79.5683C229.881 77.7785 228.743 75.2217 228.743 71.8979V57.1707C228.743 56.6082 228.538 56.148 228.129 55.7901C227.746 55.4321 227.273 55.2531 226.71 55.2531H226.097V54.8696H239.251V55.2531H238.638C238.075 55.2531 237.602 55.4321 237.219 55.7901C236.835 56.1224 236.631 56.5571 236.605 57.094V71.7445C236.605 74.4291 237.219 76.5257 238.446 78.0342C239.673 79.5427 241.386 80.297 243.585 80.297C245.784 80.297 247.497 79.5938 248.724 78.1876C249.977 76.7558 250.604 74.7743 250.604 72.243V57.094C250.578 56.5571 250.373 56.1224 249.99 55.7901C249.606 55.4321 249.133 55.2531 248.571 55.2531H247.957V54.8696H256.586V55.2531Z"/>
<path d="M282.669 59.0883C283.078 59.9832 283.282 60.9164 283.282 61.888C283.282 62.834 283.18 63.6778 282.976 64.4193C282.771 65.1352 282.451 65.8511 282.017 66.567C281.071 68.101 279.447 69.0471 277.146 69.405C278.143 69.6863 279.038 70.1848 279.831 70.9007C280.674 71.6166 281.467 72.6138 282.209 73.8922C284.126 77.1649 285.596 79.2742 286.619 80.2203C287.386 80.9362 288.358 81.3069 289.534 81.3325V81.716H284.74C281.416 81.716 279.038 81.3452 277.606 80.6038C275.561 79.5555 274.103 77.7529 273.234 75.1961C273.004 74.4547 272.8 73.6749 272.621 72.8567C272.467 72.0385 272.327 71.4504 272.199 71.0925C272.096 70.709 271.969 70.3638 271.815 70.057C271.662 69.7246 271.496 69.4689 271.317 69.29C271.01 68.9831 270.652 68.753 270.243 68.5996V68.2161H270.856C272.339 68.2161 273.452 67.5385 274.193 66.1834C274.577 65.4675 274.807 64.7005 274.883 63.8823C274.986 63.0386 275.037 62.5144 275.037 62.3099C275.037 62.1054 275.037 61.9775 275.037 61.9264C274.858 58.5514 273.4 56.8639 270.665 56.8639H268.977V78.9163C268.977 79.5811 269.22 80.1563 269.706 80.6421C270.192 81.1023 270.767 81.3325 271.432 81.3325H271.892V81.716H258.124V81.3325H258.622C259.287 81.3325 259.849 81.1023 260.31 80.6421C260.795 80.1819 261.051 79.6194 261.077 78.9546V57.6693C261.051 56.7233 260.642 56.0202 259.849 55.56C259.466 55.3554 259.057 55.2531 258.622 55.2531H258.124V54.8696H273.119C278.13 54.8696 281.314 56.2759 282.669 59.0883Z"/>
<path d="M288.805 81.3325C289.47 81.3325 290.032 81.1023 290.492 80.6421C290.978 80.1563 291.234 79.5811 291.259 78.9163V57.6693C291.234 56.8511 290.889 56.1992 290.224 55.7134C289.815 55.4065 289.342 55.2531 288.805 55.2531H288.306V54.8696H305.296C306.396 54.8696 307.367 54.7801 308.211 54.6012C309.08 54.4222 309.63 54.2816 309.86 54.1793V62.0798H309.476V61.773C309.476 59.7275 308.735 58.2957 307.252 57.4776C306.536 57.0685 305.68 56.8511 304.682 56.8256H299.121V67.5258H303.302C304.529 67.5002 305.526 67.1039 306.293 66.3369C307.06 65.5442 307.444 64.5343 307.444 63.307V63.1536H307.827V73.8155H307.444V73.6237C307.444 72.422 307.06 71.4377 306.293 70.6706C305.526 69.878 304.542 69.4689 303.34 69.4434H299.121V79.76H303.839C305.705 79.76 307.354 79.1464 308.786 77.9191C310.218 76.6919 311.228 74.9916 311.816 72.8183H312.199L310.742 81.716H288.306V81.3325H288.805Z"/>
</mask>
<path d="M90.6946 88.2742C88.7258 89.4247 86.7187 90 84.6733 90C82.6279 90 80.6847 89.6165 78.8438 88.8494C77.0285 88.0824 75.2387 86.7401 73.4745 84.8225C71.7359 82.9305 70.3041 80.6166 69.1791 77.8808L68.1436 75.3496H59.9363L58.4022 78.9163C58.2744 79.2487 58.2105 79.5171 58.2105 79.7217C58.2105 79.9262 58.2488 80.1563 58.3255 80.412C58.4278 80.6421 58.6196 80.8595 58.9008 81.064C59.2076 81.243 59.5272 81.3325 59.8596 81.3325H60.2048V81.716H51.6523V81.3325H51.9975C52.5855 81.3325 53.1608 81.1663 53.7233 80.8339C54.3114 80.4759 54.7971 79.9518 55.1807 79.2615L63.0045 62.0798C62.2374 59.9576 61.5982 58.5386 61.0869 57.8227C60.6011 57.0812 60.192 56.5188 59.8596 56.1352C59.246 55.4193 58.4789 54.8952 57.5585 54.5628C57.2005 54.435 56.7787 54.371 56.2929 54.371C55.8071 54.371 55.2574 54.4861 54.6437 54.7162L54.567 54.3327C56.6125 53.131 58.5684 52.5302 60.4349 52.5302C63.1962 52.5302 65.6891 53.8853 67.9135 56.5955C69.0385 58.0017 70.0484 59.702 70.9433 61.6963L77.0796 75.7714C78.2046 78.3538 79.0356 80.0924 79.5725 80.9873C80.1094 81.8566 80.5824 82.5981 80.9915 83.2117C81.4262 83.8509 81.848 84.4006 82.2571 84.8608C82.6662 85.3211 83.1137 85.7685 83.5994 86.2032C84.4432 86.9702 85.5043 87.5455 86.7827 87.929C87.3196 88.108 87.9076 88.1975 88.5468 88.1975C89.2116 88.1975 89.902 88.0952 90.6179 87.8906L90.6946 88.2742ZM60.78 73.432H67.3766L64.9604 67.4874C64.7559 67.0272 64.513 66.3752 64.2317 65.5315L60.78 73.432Z" fill="url(#paint6_linear)"/>
<path d="M95.8011 54.8696C100.608 54.8696 104.354 56.0585 107.038 58.4363C109.748 60.7886 111.103 64.0741 111.103 68.2928C111.103 72.5115 109.748 75.8098 107.038 78.1876C104.354 80.5399 100.608 81.716 95.8011 81.716H81.2657V81.3325H81.7642C82.429 81.3325 82.9915 81.1023 83.4517 80.6421C83.9375 80.1563 84.1932 79.5811 84.2188 78.9163V57.4392C84.2188 56.8256 83.9631 56.3142 83.4517 55.9051C82.9659 55.4705 82.4034 55.2531 81.7642 55.2531H81.304L81.2657 54.8696H95.8011ZM92.0809 56.7872V79.7984H95.034C97.4118 79.7984 99.2783 78.7884 100.633 76.7686C101.988 74.7231 102.666 71.8979 102.666 68.2928C102.666 64.6877 101.988 61.8752 100.633 59.8554C99.2783 57.8099 97.4118 56.7872 95.034 56.7872H92.0809Z" fill="url(#paint7_linear)"/>
<path d="M140.424 55.2531H140.079C138.75 55.2531 137.689 55.9435 136.896 57.3241L127.96 76.922C126.605 79.7856 125.876 81.6904 125.774 82.6364H125.429L113.271 57.3625C112.479 55.9563 111.405 55.2531 110.05 55.2531H109.743V54.8696H124.278V55.2531H123.933C123.396 55.2531 122.987 55.4321 122.706 55.7901C122.45 56.1224 122.322 56.442 122.322 56.7489C122.322 57.0557 122.373 57.3625 122.476 57.6693L127.96 70.824L133.674 57.6693C133.828 57.3369 133.905 57.0301 133.905 56.7489C133.905 56.442 133.764 56.1224 133.483 55.7901C133.201 55.4321 132.78 55.2531 132.217 55.2531H131.872V54.8696H140.424V55.2531Z" fill="url(#paint8_linear)"/>
<path d="M140.491 81.3325C141.155 81.3325 141.718 81.1023 142.178 80.6421C142.664 80.1563 142.92 79.5811 142.945 78.9163V57.6693C142.92 56.8511 142.574 56.1992 141.91 55.7134C141.501 55.4065 141.028 55.2531 140.491 55.2531H139.992V54.8696H156.982C158.081 54.8696 159.053 54.7801 159.897 54.6012C160.766 54.4222 161.316 54.2816 161.546 54.1793V62.0798H161.162V61.773C161.162 59.7275 160.421 58.2957 158.938 57.4776C158.222 57.0685 157.366 56.8511 156.368 56.8256H150.807V67.5258H154.988C156.215 67.5002 157.212 67.1039 157.979 66.3369C158.746 65.5442 159.13 64.5343 159.13 63.307V63.1536H159.513V73.8155H159.13V73.6237C159.13 72.422 158.746 71.4377 157.979 70.6706C157.212 69.878 156.228 69.4689 155.026 69.4434H150.807V79.76H155.525C157.391 79.76 159.04 79.1464 160.472 77.9191C161.904 76.6919 162.914 74.9916 163.502 72.8183H163.885L162.428 81.716H139.992V81.3325H140.491Z" fill="url(#paint9_linear)"/>
<path d="M196.715 55.2531C196.076 55.2531 195.526 55.4833 195.066 55.9435C194.606 56.3781 194.363 56.9151 194.337 57.5543V77.3439C194.337 79.2359 194.465 80.6933 194.721 81.716L194.836 82.2529H194.491L176.12 65.915V78.993C176.12 79.9134 176.517 80.591 177.309 81.0256C177.667 81.2302 178.051 81.3325 178.46 81.3325H179.188V81.716H165.152V81.3325H165.88C166.519 81.3325 167.069 81.1151 167.529 80.6805C167.99 80.2203 168.22 79.6578 168.22 78.993V59.0883C168.22 57.2986 168.092 55.8796 167.836 54.8313L167.721 54.2943H168.105L186.475 70.6323V57.5926C186.45 56.9278 186.207 56.3781 185.747 55.9435C185.286 55.4833 184.737 55.2531 184.097 55.2531H183.369V54.8696H197.406V55.2531H196.715Z" fill="url(#paint10_linear)"/>
<path d="M215.502 56.7489V78.9546C215.528 79.6194 215.771 80.1819 216.231 80.6421C216.717 81.1023 217.292 81.3325 217.957 81.3325H218.455V81.716H204.687V81.3325H205.186C205.85 81.3325 206.413 81.1023 206.873 80.6421C207.359 80.1819 207.615 79.6322 207.64 78.993V56.7489H203.843C202.309 56.7744 201.107 57.2347 200.238 58.1295C199.369 58.9988 198.934 60.2005 198.934 61.7346V62.0031L198.551 62.0414V54.1409C198.909 54.2943 199.548 54.4477 200.468 54.6012C201.414 54.7546 202.284 54.8313 203.076 54.8313H220.066C220.859 54.8313 221.715 54.7546 222.636 54.6012C223.556 54.4477 224.208 54.2943 224.592 54.1409V62.0414L224.208 62.0031V61.7346C224.208 59.6636 223.441 58.2062 221.907 57.3625C221.166 56.979 220.283 56.7744 219.261 56.7489H215.502Z" fill="url(#paint11_linear)"/>
<path d="M256.586 55.2531H255.973C255.436 55.2531 254.963 55.4321 254.554 55.7901C254.17 56.1224 253.966 56.5443 253.94 57.0557V71.8595C253.94 75.1067 252.93 77.6507 250.91 79.4916C248.916 81.3325 246.104 82.2529 242.473 82.2529C237.871 82.2529 234.432 81.358 232.156 79.5683C229.881 77.7785 228.743 75.2217 228.743 71.8979V57.1707C228.743 56.6082 228.538 56.148 228.129 55.7901C227.746 55.4321 227.273 55.2531 226.71 55.2531H226.097V54.8696H239.251V55.2531H238.638C238.075 55.2531 237.602 55.4321 237.219 55.7901C236.835 56.1224 236.631 56.5571 236.605 57.094V71.7445C236.605 74.4291 237.219 76.5257 238.446 78.0342C239.673 79.5427 241.386 80.297 243.585 80.297C245.784 80.297 247.497 79.5938 248.724 78.1876C249.977 76.7558 250.604 74.7743 250.604 72.243V57.094C250.578 56.5571 250.373 56.1224 249.99 55.7901C249.606 55.4321 249.133 55.2531 248.571 55.2531H247.957V54.8696H256.586V55.2531Z" fill="url(#paint12_linear)"/>
<path d="M282.669 59.0883C283.078 59.9832 283.282 60.9164 283.282 61.888C283.282 62.834 283.18 63.6778 282.976 64.4193C282.771 65.1352 282.451 65.8511 282.017 66.567C281.071 68.101 279.447 69.0471 277.146 69.405C278.143 69.6863 279.038 70.1848 279.831 70.9007C280.674 71.6166 281.467 72.6138 282.209 73.8922C284.126 77.1649 285.596 79.2742 286.619 80.2203C287.386 80.9362 288.358 81.3069 289.534 81.3325V81.716H284.74C281.416 81.716 279.038 81.3452 277.606 80.6038C275.561 79.5555 274.103 77.7529 273.234 75.1961C273.004 74.4547 272.8 73.6749 272.621 72.8567C272.467 72.0385 272.327 71.4504 272.199 71.0925C272.096 70.709 271.969 70.3638 271.815 70.057C271.662 69.7246 271.496 69.4689 271.317 69.29C271.01 68.9831 270.652 68.753 270.243 68.5996V68.2161H270.856C272.339 68.2161 273.452 67.5385 274.193 66.1834C274.577 65.4675 274.807 64.7005 274.883 63.8823C274.986 63.0386 275.037 62.5144 275.037 62.3099C275.037 62.1054 275.037 61.9775 275.037 61.9264C274.858 58.5514 273.4 56.8639 270.665 56.8639H268.977V78.9163C268.977 79.5811 269.22 80.1563 269.706 80.6421C270.192 81.1023 270.767 81.3325 271.432 81.3325H271.892V81.716H258.124V81.3325H258.622C259.287 81.3325 259.849 81.1023 260.31 80.6421C260.795 80.1819 261.051 79.6194 261.077 78.9546V57.6693C261.051 56.7233 260.642 56.0202 259.849 55.56C259.466 55.3554 259.057 55.2531 258.622 55.2531H258.124V54.8696H273.119C278.13 54.8696 281.314 56.2759 282.669 59.0883Z" fill="url(#paint13_linear)"/>
<path d="M288.805 81.3325C289.47 81.3325 290.032 81.1023 290.492 80.6421C290.978 80.1563 291.234 79.5811 291.259 78.9163V57.6693C291.234 56.8511 290.889 56.1992 290.224 55.7134C289.815 55.4065 289.342 55.2531 288.805 55.2531H288.306V54.8696H305.296C306.396 54.8696 307.367 54.7801 308.211 54.6012C309.08 54.4222 309.63 54.2816 309.86 54.1793V62.0798H309.476V61.773C309.476 59.7275 308.735 58.2957 307.252 57.4776C306.536 57.0685 305.68 56.8511 304.682 56.8256H299.121V67.5258H303.302C304.529 67.5002 305.526 67.1039 306.293 66.3369C307.06 65.5442 307.444 64.5343 307.444 63.307V63.1536H307.827V73.8155H307.444V73.6237C307.444 72.422 307.06 71.4377 306.293 70.6706C305.526 69.878 304.542 69.4689 303.34 69.4434H299.121V79.76H303.839C305.705 79.76 307.354 79.1464 308.786 77.9191C310.218 76.6919 311.228 74.9916 311.816 72.8183H312.199L310.742 81.716H288.306V81.3325H288.805Z" fill="url(#paint14_linear)"/>
<path d="M90.6946 88.2742C88.7258 89.4247 86.7187 90 84.6733 90C82.6279 90 80.6847 89.6165 78.8438 88.8494C77.0285 88.0824 75.2387 86.7401 73.4745 84.8225C71.7359 82.9305 70.3041 80.6166 69.1791 77.8808L68.1436 75.3496H59.9363L58.4022 78.9163C58.2744 79.2487 58.2105 79.5171 58.2105 79.7217C58.2105 79.9262 58.2488 80.1563 58.3255 80.412C58.4278 80.6421 58.6196 80.8595 58.9008 81.064C59.2076 81.243 59.5272 81.3325 59.8596 81.3325H60.2048V81.716H51.6523V81.3325H51.9975C52.5855 81.3325 53.1608 81.1663 53.7233 80.8339C54.3114 80.4759 54.7971 79.9518 55.1807 79.2615L63.0045 62.0798C62.2374 59.9576 61.5982 58.5386 61.0869 57.8227C60.6011 57.0812 60.192 56.5188 59.8596 56.1352C59.246 55.4193 58.4789 54.8952 57.5585 54.5628C57.2005 54.435 56.7787 54.371 56.2929 54.371C55.8071 54.371 55.2574 54.4861 54.6437 54.7162L54.567 54.3327C56.6125 53.131 58.5684 52.5302 60.4349 52.5302C63.1962 52.5302 65.6891 53.8853 67.9135 56.5955C69.0385 58.0017 70.0484 59.702 70.9433 61.6963L77.0796 75.7714C78.2046 78.3538 79.0356 80.0924 79.5725 80.9873C80.1094 81.8566 80.5824 82.5981 80.9915 83.2117C81.4262 83.8509 81.848 84.4006 82.2571 84.8608C82.6662 85.3211 83.1137 85.7685 83.5994 86.2032C84.4432 86.9702 85.5043 87.5455 86.7827 87.929C87.3196 88.108 87.9076 88.1975 88.5468 88.1975C89.2116 88.1975 89.902 88.0952 90.6179 87.8906L90.6946 88.2742ZM60.78 73.432H67.3766L64.9604 67.4874C64.7559 67.0272 64.513 66.3752 64.2317 65.5315L60.78 73.432Z" stroke="black" stroke-width="8" mask="url(#path-2-outside-2)"/>
<path d="M95.8011 54.8696C100.608 54.8696 104.354 56.0585 107.038 58.4363C109.748 60.7886 111.103 64.0741 111.103 68.2928C111.103 72.5115 109.748 75.8098 107.038 78.1876C104.354 80.5399 100.608 81.716 95.8011 81.716H81.2657V81.3325H81.7642C82.429 81.3325 82.9915 81.1023 83.4517 80.6421C83.9375 80.1563 84.1932 79.5811 84.2188 78.9163V57.4392C84.2188 56.8256 83.9631 56.3142 83.4517 55.9051C82.9659 55.4705 82.4034 55.2531 81.7642 55.2531H81.304L81.2657 54.8696H95.8011ZM92.0809 56.7872V79.7984H95.034C97.4118 79.7984 99.2783 78.7884 100.633 76.7686C101.988 74.7231 102.666 71.8979 102.666 68.2928C102.666 64.6877 101.988 61.8752 100.633 59.8554C99.2783 57.8099 97.4118 56.7872 95.034 56.7872H92.0809Z" stroke="black" stroke-width="8" mask="url(#path-2-outside-2)"/>
<path d="M140.424 55.2531H140.079C138.75 55.2531 137.689 55.9435 136.896 57.3241L127.96 76.922C126.605 79.7856 125.876 81.6904 125.774 82.6364H125.429L113.271 57.3625C112.479 55.9563 111.405 55.2531 110.05 55.2531H109.743V54.8696H124.278V55.2531H123.933C123.396 55.2531 122.987 55.4321 122.706 55.7901C122.45 56.1224 122.322 56.442 122.322 56.7489C122.322 57.0557 122.373 57.3625 122.476 57.6693L127.96 70.824L133.674 57.6693C133.828 57.3369 133.905 57.0301 133.905 56.7489C133.905 56.442 133.764 56.1224 133.483 55.7901C133.201 55.4321 132.78 55.2531 132.217 55.2531H131.872V54.8696H140.424V55.2531Z" stroke="black" stroke-width="8" mask="url(#path-2-outside-2)"/>
<path d="M140.491 81.3325C141.155 81.3325 141.718 81.1023 142.178 80.6421C142.664 80.1563 142.92 79.5811 142.945 78.9163V57.6693C142.92 56.8511 142.574 56.1992 141.91 55.7134C141.501 55.4065 141.028 55.2531 140.491 55.2531H139.992V54.8696H156.982C158.081 54.8696 159.053 54.7801 159.897 54.6012C160.766 54.4222 161.316 54.2816 161.546 54.1793V62.0798H161.162V61.773C161.162 59.7275 160.421 58.2957 158.938 57.4776C158.222 57.0685 157.366 56.8511 156.368 56.8256H150.807V67.5258H154.988C156.215 67.5002 157.212 67.1039 157.979 66.3369C158.746 65.5442 159.13 64.5343 159.13 63.307V63.1536H159.513V73.8155H159.13V73.6237C159.13 72.422 158.746 71.4377 157.979 70.6706C157.212 69.878 156.228 69.4689 155.026 69.4434H150.807V79.76H155.525C157.391 79.76 159.04 79.1464 160.472 77.9191C161.904 76.6919 162.914 74.9916 163.502 72.8183H163.885L162.428 81.716H139.992V81.3325H140.491Z" stroke="black" stroke-width="8" mask="url(#path-2-outside-2)"/>
<path d="M196.715 55.2531C196.076 55.2531 195.526 55.4833 195.066 55.9435C194.606 56.3781 194.363 56.9151 194.337 57.5543V77.3439C194.337 79.2359 194.465 80.6933 194.721 81.716L194.836 82.2529H194.491L176.12 65.915V78.993C176.12 79.9134 176.517 80.591 177.309 81.0256C177.667 81.2302 178.051 81.3325 178.46 81.3325H179.188V81.716H165.152V81.3325H165.88C166.519 81.3325 167.069 81.1151 167.529 80.6805C167.99 80.2203 168.22 79.6578 168.22 78.993V59.0883C168.22 57.2986 168.092 55.8796 167.836 54.8313L167.721 54.2943H168.105L186.475 70.6323V57.5926C186.45 56.9278 186.207 56.3781 185.747 55.9435C185.286 55.4833 184.737 55.2531 184.097 55.2531H183.369V54.8696H197.406V55.2531H196.715Z" stroke="black" stroke-width="8" mask="url(#path-2-outside-2)"/>
<path d="M215.502 56.7489V78.9546C215.528 79.6194 215.771 80.1819 216.231 80.6421C216.717 81.1023 217.292 81.3325 217.957 81.3325H218.455V81.716H204.687V81.3325H205.186C205.85 81.3325 206.413 81.1023 206.873 80.6421C207.359 80.1819 207.615 79.6322 207.64 78.993V56.7489H203.843C202.309 56.7744 201.107 57.2347 200.238 58.1295C199.369 58.9988 198.934 60.2005 198.934 61.7346V62.0031L198.551 62.0414V54.1409C198.909 54.2943 199.548 54.4477 200.468 54.6012C201.414 54.7546 202.284 54.8313 203.076 54.8313H220.066C220.859 54.8313 221.715 54.7546 222.636 54.6012C223.556 54.4477 224.208 54.2943 224.592 54.1409V62.0414L224.208 62.0031V61.7346C224.208 59.6636 223.441 58.2062 221.907 57.3625C221.166 56.979 220.283 56.7744 219.261 56.7489H215.502Z" stroke="black" stroke-width="8" mask="url(#path-2-outside-2)"/>
<path d="M256.586 55.2531H255.973C255.436 55.2531 254.963 55.4321 254.554 55.7901C254.17 56.1224 253.966 56.5443 253.94 57.0557V71.8595C253.94 75.1067 252.93 77.6507 250.91 79.4916C248.916 81.3325 246.104 82.2529 242.473 82.2529C237.871 82.2529 234.432 81.358 232.156 79.5683C229.881 77.7785 228.743 75.2217 228.743 71.8979V57.1707C228.743 56.6082 228.538 56.148 228.129 55.7901C227.746 55.4321 227.273 55.2531 226.71 55.2531H226.097V54.8696H239.251V55.2531H238.638C238.075 55.2531 237.602 55.4321 237.219 55.7901C236.835 56.1224 236.631 56.5571 236.605 57.094V71.7445C236.605 74.4291 237.219 76.5257 238.446 78.0342C239.673 79.5427 241.386 80.297 243.585 80.297C245.784 80.297 247.497 79.5938 248.724 78.1876C249.977 76.7558 250.604 74.7743 250.604 72.243V57.094C250.578 56.5571 250.373 56.1224 249.99 55.7901C249.606 55.4321 249.133 55.2531 248.571 55.2531H247.957V54.8696H256.586V55.2531Z" stroke="black" stroke-width="8" mask="url(#path-2-outside-2)"/>
<path d="M282.669 59.0883C283.078 59.9832 283.282 60.9164 283.282 61.888C283.282 62.834 283.18 63.6778 282.976 64.4193C282.771 65.1352 282.451 65.8511 282.017 66.567C281.071 68.101 279.447 69.0471 277.146 69.405C278.143 69.6863 279.038 70.1848 279.831 70.9007C280.674 71.6166 281.467 72.6138 282.209 73.8922C284.126 77.1649 285.596 79.2742 286.619 80.2203C287.386 80.9362 288.358 81.3069 289.534 81.3325V81.716H284.74C281.416 81.716 279.038 81.3452 277.606 80.6038C275.561 79.5555 274.103 77.7529 273.234 75.1961C273.004 74.4547 272.8 73.6749 272.621 72.8567C272.467 72.0385 272.327 71.4504 272.199 71.0925C272.096 70.709 271.969 70.3638 271.815 70.057C271.662 69.7246 271.496 69.4689 271.317 69.29C271.01 68.9831 270.652 68.753 270.243 68.5996V68.2161H270.856C272.339 68.2161 273.452 67.5385 274.193 66.1834C274.577 65.4675 274.807 64.7005 274.883 63.8823C274.986 63.0386 275.037 62.5144 275.037 62.3099C275.037 62.1054 275.037 61.9775 275.037 61.9264C274.858 58.5514 273.4 56.8639 270.665 56.8639H268.977V78.9163C268.977 79.5811 269.22 80.1563 269.706 80.6421C270.192 81.1023 270.767 81.3325 271.432 81.3325H271.892V81.716H258.124V81.3325H258.622C259.287 81.3325 259.849 81.1023 260.31 80.6421C260.795 80.1819 261.051 79.6194 261.077 78.9546V57.6693C261.051 56.7233 260.642 56.0202 259.849 55.56C259.466 55.3554 259.057 55.2531 258.622 55.2531H258.124V54.8696H273.119C278.13 54.8696 281.314 56.2759 282.669 59.0883Z" stroke="black" stroke-width="8" mask="url(#path-2-outside-2)"/>
<path d="M288.805 81.3325C289.47 81.3325 290.032 81.1023 290.492 80.6421C290.978 80.1563 291.234 79.5811 291.259 78.9163V57.6693C291.234 56.8511 290.889 56.1992 290.224 55.7134C289.815 55.4065 289.342 55.2531 288.805 55.2531H288.306V54.8696H305.296C306.396 54.8696 307.367 54.7801 308.211 54.6012C309.08 54.4222 309.63 54.2816 309.86 54.1793V62.0798H309.476V61.773C309.476 59.7275 308.735 58.2957 307.252 57.4776C306.536 57.0685 305.68 56.8511 304.682 56.8256H299.121V67.5258H303.302C304.529 67.5002 305.526 67.1039 306.293 66.3369C307.06 65.5442 307.444 64.5343 307.444 63.307V63.1536H307.827V73.8155H307.444V73.6237C307.444 72.422 307.06 71.4377 306.293 70.6706C305.526 69.878 304.542 69.4689 303.34 69.4434H299.121V79.76H303.839C305.705 79.76 307.354 79.1464 308.786 77.9191C310.218 76.6919 311.228 74.9916 311.816 72.8183H312.199L310.742 81.716H288.306V81.3325H288.805Z" stroke="black" stroke-width="8" mask="url(#path-2-outside-2)"/>
<path d="M113.75 122.47C113.89 122.69 113.96 122.92 113.96 123.16C113.96 123.46 113.84 123.71 113.6 123.91C113.38 124.09 113.12 124.18 112.82 124.18C112.36 124.18 112 123.98 111.74 123.58L107.72 117.22C107.2 116.4 106.66 115.84 106.1 115.54C105.54 115.22 104.78 115.06 103.82 115.06H100.04V122.89C100.04 123.27 99.93 123.58 99.71 123.82C99.49 124.04 99.2 124.15 98.84 124.15C98.46 124.15 98.16 124.04 97.94 123.82C97.72 123.58 97.61 123.27 97.61 122.89V104.05C97.61 103.69 97.72 103.4 97.94 103.18C98.18 102.96 98.49 102.85 98.87 102.85H106.31C108.61 102.85 110.36 103.36 111.56 104.38C112.78 105.4 113.39 106.9 113.39 108.88C113.39 110.56 112.9 111.91 111.92 112.93C110.96 113.95 109.58 114.57 107.78 114.79C108.28 114.95 108.73 115.21 109.13 115.57C109.53 115.93 109.93 116.43 110.33 117.07L113.75 122.47ZM106.1 113.02C107.74 113.02 108.96 112.68 109.76 112C110.58 111.32 110.99 110.29 110.99 108.91C110.99 107.55 110.59 106.54 109.79 105.88C108.99 105.22 107.76 104.89 106.1 104.89H100.04V113.02H106.1Z" fill="white"/>
<path d="M129.126 120.61C129.346 120.61 129.536 120.7 129.696 120.88C129.856 121.06 129.936 121.29 129.936 121.57C129.936 122.07 129.586 122.53 128.886 122.95C128.166 123.37 127.406 123.69 126.606 123.91C125.806 124.11 125.026 124.21 124.266 124.21C122.006 124.21 120.216 123.54 118.896 122.2C117.596 120.86 116.946 119.01 116.946 116.65C116.946 115.15 117.236 113.83 117.816 112.69C118.396 111.53 119.206 110.63 120.246 109.99C121.306 109.35 122.506 109.03 123.846 109.03C125.746 109.03 127.256 109.65 128.376 110.89C129.496 112.13 130.056 113.81 130.056 115.93C130.056 116.33 129.976 116.62 129.816 116.8C129.656 116.98 129.396 117.07 129.036 117.07H119.376C119.556 120.51 121.186 122.23 124.266 122.23C125.046 122.23 125.716 122.13 126.276 121.93C126.836 121.71 127.436 121.42 128.076 121.06C128.596 120.76 128.946 120.61 129.126 120.61ZM123.876 110.92C122.596 110.92 121.566 111.32 120.786 112.12C120.026 112.92 119.576 114.05 119.436 115.51H127.926C127.886 114.03 127.516 112.9 126.816 112.12C126.116 111.32 125.136 110.92 123.876 110.92Z" fill="white"/>
<path d="M139.607 109.03C143.267 109.03 145.097 110.95 145.097 114.79V122.95C145.097 123.31 144.987 123.6 144.767 123.82C144.567 124.04 144.287 124.15 143.927 124.15C143.567 124.15 143.277 124.04 143.057 123.82C142.837 123.6 142.727 123.31 142.727 122.95V121.51C142.347 122.37 141.767 123.04 140.987 123.52C140.207 123.98 139.307 124.21 138.287 124.21C137.347 124.21 136.477 124.02 135.677 123.64C134.897 123.26 134.277 122.73 133.817 122.05C133.357 121.37 133.127 120.62 133.127 119.8C133.127 118.7 133.407 117.85 133.967 117.25C134.527 116.63 135.447 116.19 136.727 115.93C138.007 115.65 139.787 115.51 142.067 115.51H142.727V114.52C142.727 113.32 142.477 112.44 141.977 111.88C141.497 111.32 140.707 111.04 139.607 111.04C138.247 111.04 136.867 111.41 135.467 112.15C134.927 112.49 134.547 112.66 134.327 112.66C134.087 112.66 133.887 112.57 133.727 112.39C133.567 112.21 133.487 111.98 133.487 111.7C133.487 111.42 133.567 111.18 133.727 110.98C133.907 110.76 134.187 110.54 134.567 110.32C135.267 109.92 136.057 109.61 136.937 109.39C137.837 109.15 138.727 109.03 139.607 109.03ZM138.617 122.29C139.817 122.29 140.797 121.89 141.557 121.09C142.337 120.27 142.727 119.22 142.727 117.94V117.07H142.187C140.427 117.07 139.087 117.15 138.167 117.31C137.247 117.45 136.587 117.7 136.187 118.06C135.807 118.4 135.617 118.91 135.617 119.59C135.617 120.37 135.897 121.02 136.457 121.54C137.037 122.04 137.757 122.29 138.617 122.29Z" fill="white"/>
<path d="M150.775 124.15C150.415 124.15 150.115 124.05 149.875 123.85C149.655 123.63 149.545 123.33 149.545 122.95V103.9C149.545 103.52 149.655 103.23 149.875 103.03C150.115 102.81 150.415 102.7 150.775 102.7C151.115 102.7 151.395 102.81 151.615 103.03C151.855 103.23 151.975 103.52 151.975 103.9V122.95C151.975 123.33 151.855 123.63 151.615 123.85C151.395 124.05 151.115 124.15 150.775 124.15Z" fill="white"/>
<path d="M172.778 109.03C176.018 109.03 177.638 110.96 177.638 114.82V122.95C177.638 123.33 177.528 123.63 177.308 123.85C177.088 124.05 176.798 124.15 176.438 124.15C176.078 124.15 175.778 124.05 175.538 123.85C175.318 123.63 175.208 123.33 175.208 122.95V114.88C175.208 113.54 174.968 112.57 174.488 111.97C174.008 111.37 173.258 111.07 172.238 111.07C171.018 111.07 170.058 111.48 169.358 112.3C168.658 113.12 168.308 114.23 168.308 115.63V122.95C168.308 123.33 168.188 123.63 167.948 123.85C167.728 124.05 167.438 124.15 167.078 124.15C166.718 124.15 166.428 124.05 166.208 123.85C165.988 123.63 165.878 123.33 165.878 122.95V114.88C165.878 113.54 165.638 112.57 165.158 111.97C164.678 111.37 163.918 111.07 162.878 111.07C161.678 111.07 160.718 111.48 159.998 112.3C159.298 113.12 158.948 114.23 158.948 115.63V122.95C158.948 123.33 158.838 123.63 158.618 123.85C158.398 124.05 158.108 124.15 157.748 124.15C157.388 124.15 157.088 124.05 156.848 123.85C156.628 123.63 156.518 123.33 156.518 122.95V110.29C156.518 109.93 156.628 109.64 156.848 109.42C157.088 109.2 157.388 109.09 157.748 109.09C158.088 109.09 158.368 109.2 158.588 109.42C158.808 109.62 158.918 109.9 158.918 110.26V111.7C159.358 110.84 159.968 110.18 160.748 109.72C161.528 109.26 162.428 109.03 163.448 109.03C165.728 109.03 167.218 109.99 167.918 111.91C168.338 111.03 168.978 110.33 169.838 109.81C170.698 109.29 171.678 109.03 172.778 109.03Z" fill="white"/>
<path d="M196.519 124.15C196.139 124.15 195.829 124.04 195.589 123.82C195.369 123.58 195.259 123.27 195.259 122.89V104.95H188.809C188.449 104.95 188.169 104.86 187.969 104.68C187.769 104.5 187.669 104.24 187.669 103.9C187.669 103.56 187.769 103.3 187.969 103.12C188.169 102.94 188.449 102.85 188.809 102.85H204.199C204.559 102.85 204.839 102.94 205.039 103.12C205.239 103.3 205.339 103.56 205.339 103.9C205.339 104.24 205.239 104.5 205.039 104.68C204.839 104.86 204.559 104.95 204.199 104.95H197.749V122.89C197.749 123.27 197.639 123.58 197.419 123.82C197.199 124.04 196.899 124.15 196.519 124.15Z" fill="white"/>
<path d="M212.673 109.09C213.513 109.03 213.933 109.37 213.933 110.11C213.933 110.43 213.843 110.69 213.663 110.89C213.483 111.07 213.173 111.18 212.733 111.22L211.833 111.31C210.493 111.43 209.493 111.91 208.833 112.75C208.193 113.57 207.873 114.54 207.873 115.66V122.95C207.873 123.35 207.763 123.65 207.543 123.85C207.323 124.05 207.033 124.15 206.673 124.15C206.313 124.15 206.013 124.05 205.773 123.85C205.553 123.63 205.443 123.33 205.443 122.95V110.29C205.443 109.91 205.563 109.62 205.803 109.42C206.043 109.2 206.333 109.09 206.673 109.09C206.993 109.09 207.263 109.2 207.483 109.42C207.703 109.62 207.813 109.9 207.813 110.26V111.94C208.233 111.06 208.823 110.39 209.583 109.93C210.363 109.47 211.253 109.2 212.253 109.12L212.673 109.09Z" fill="white"/>
<path d="M221.872 109.03C225.532 109.03 227.362 110.95 227.362 114.79V122.95C227.362 123.31 227.252 123.6 227.032 123.82C226.832 124.04 226.552 124.15 226.192 124.15C225.832 124.15 225.542 124.04 225.322 123.82C225.102 123.6 224.992 123.31 224.992 122.95V121.51C224.612 122.37 224.032 123.04 223.252 123.52C222.472 123.98 221.572 124.21 220.552 124.21C219.612 124.21 218.742 124.02 217.942 123.64C217.162 123.26 216.542 122.73 216.082 122.05C215.622 121.37 215.392 120.62 215.392 119.8C215.392 118.7 215.672 117.85 216.232 117.25C216.792 116.63 217.712 116.19 218.992 115.93C220.272 115.65 222.052 115.51 224.332 115.51H224.992V114.52C224.992 113.32 224.742 112.44 224.242 111.88C223.762 111.32 222.972 111.04 221.872 111.04C220.512 111.04 219.132 111.41 217.732 112.15C217.192 112.49 216.812 112.66 216.592 112.66C216.352 112.66 216.152 112.57 215.992 112.39C215.832 112.21 215.752 111.98 215.752 111.7C215.752 111.42 215.832 111.18 215.992 110.98C216.172 110.76 216.452 110.54 216.832 110.32C217.532 109.92 218.322 109.61 219.202 109.39C220.102 109.15 220.992 109.03 221.872 109.03ZM220.882 122.29C222.082 122.29 223.062 121.89 223.822 121.09C224.602 120.27 224.992 119.22 224.992 117.94V117.07H224.452C222.692 117.07 221.352 117.15 220.432 117.31C219.512 117.45 218.852 117.7 218.452 118.06C218.072 118.4 217.882 118.91 217.882 119.59C217.882 120.37 218.162 121.02 218.722 121.54C219.302 122.04 220.022 122.29 220.882 122.29Z" fill="white"/>
<path d="M242.341 109.84C242.561 109.36 242.911 109.12 243.391 109.12C243.691 109.12 243.961 109.22 244.201 109.42C244.441 109.62 244.561 109.87 244.561 110.17C244.561 110.35 244.521 110.51 244.441 110.65L238.591 123.25C238.471 123.51 238.291 123.72 238.051 123.88C237.811 124.02 237.551 124.09 237.271 124.09C237.011 124.09 236.761 124.02 236.521 123.88C236.281 123.72 236.091 123.51 235.951 123.25L230.131 110.65C230.051 110.51 230.011 110.36 230.011 110.2C230.011 109.9 230.141 109.64 230.401 109.42C230.681 109.2 230.981 109.09 231.301 109.09C231.501 109.09 231.691 109.15 231.871 109.27C232.071 109.39 232.221 109.56 232.321 109.78L237.331 121.03L242.341 109.84Z" fill="white"/>
<path d="M258.355 120.61C258.575 120.61 258.765 120.7 258.925 120.88C259.085 121.06 259.165 121.29 259.165 121.57C259.165 122.07 258.815 122.53 258.115 122.95C257.395 123.37 256.635 123.69 255.835 123.91C255.035 124.11 254.255 124.21 253.495 124.21C251.235 124.21 249.445 123.54 248.125 122.2C246.825 120.86 246.175 119.01 246.175 116.65C246.175 115.15 246.465 113.83 247.045 112.69C247.625 111.53 248.435 110.63 249.475 109.99C250.535 109.35 251.735 109.03 253.075 109.03C254.975 109.03 256.485 109.65 257.605 110.89C258.725 112.13 259.285 113.81 259.285 115.93C259.285 116.33 259.205 116.62 259.045 116.8C258.885 116.98 258.625 117.07 258.265 117.07H248.605C248.785 120.51 250.415 122.23 253.495 122.23C254.275 122.23 254.945 122.13 255.505 121.93C256.065 121.71 256.665 121.42 257.305 121.06C257.825 120.76 258.175 120.61 258.355 120.61ZM253.105 110.92C251.825 110.92 250.795 111.32 250.015 112.12C249.255 112.92 248.805 114.05 248.665 115.51H257.155C257.115 114.03 256.745 112.9 256.045 112.12C255.345 111.32 254.365 110.92 253.105 110.92Z" fill="white"/>
<path d="M264.095 124.15C263.735 124.15 263.435 124.05 263.195 123.85C262.975 123.63 262.865 123.33 262.865 122.95V103.9C262.865 103.52 262.975 103.23 263.195 103.03C263.435 102.81 263.735 102.7 264.095 102.7C264.435 102.7 264.715 102.81 264.935 103.03C265.175 103.23 265.295 103.52 265.295 103.9V122.95C265.295 123.33 265.175 123.63 264.935 123.85C264.715 124.05 264.435 124.15 264.095 124.15Z" fill="white"/>
<path d="M281.148 120.61C281.368 120.61 281.558 120.7 281.718 120.88C281.878 121.06 281.958 121.29 281.958 121.57C281.958 122.07 281.608 122.53 280.908 122.95C280.188 123.37 279.428 123.69 278.628 123.91C277.828 124.11 277.048 124.21 276.288 124.21C274.028 124.21 272.238 123.54 270.918 122.2C269.618 120.86 268.968 119.01 268.968 116.65C268.968 115.15 269.258 113.83 269.838 112.69C270.418 111.53 271.228 110.63 272.268 109.99C273.328 109.35 274.528 109.03 275.868 109.03C277.768 109.03 279.278 109.65 280.398 110.89C281.518 112.13 282.078 113.81 282.078 115.93C282.078 116.33 281.998 116.62 281.838 116.8C281.678 116.98 281.418 117.07 281.058 117.07H271.398C271.578 120.51 273.208 122.23 276.288 122.23C277.068 122.23 277.738 122.13 278.298 121.93C278.858 121.71 279.458 121.42 280.098 121.06C280.618 120.76 280.968 120.61 281.148 120.61ZM275.898 110.92C274.618 110.92 273.588 111.32 272.808 112.12C272.048 112.92 271.598 114.05 271.458 115.51H279.948C279.908 114.03 279.538 112.9 278.838 112.12C278.138 111.32 277.158 110.92 275.898 110.92Z" fill="white"/>
<path d="M292.888 109.09C293.728 109.03 294.148 109.37 294.148 110.11C294.148 110.43 294.058 110.69 293.878 110.89C293.698 111.07 293.388 111.18 292.948 111.22L292.048 111.31C290.708 111.43 289.708 111.91 289.048 112.75C288.408 113.57 288.088 114.54 288.088 115.66V122.95C288.088 123.35 287.978 123.65 287.758 123.85C287.538 124.05 287.248 124.15 286.888 124.15C286.528 124.15 286.228 124.05 285.988 123.85C285.768 123.63 285.658 123.33 285.658 122.95V110.29C285.658 109.91 285.778 109.62 286.018 109.42C286.258 109.2 286.548 109.09 286.888 109.09C287.208 109.09 287.478 109.2 287.698 109.42C287.918 109.62 288.028 109.9 288.028 110.26V111.94C288.448 111.06 289.038 110.39 289.798 109.93C290.578 109.47 291.468 109.2 292.468 109.12L292.888 109.09Z" fill="white"/>
<defs>
<linearGradient id="paint0_linear" x1="92.3373" y1="8.19416" x2="92.3373" y2="43.8239" gradientUnits="userSpaceOnUse">
<stop stop-color="#FFDDAA"/>
<stop offset="0.260417" stop-color="#884411" stop-opacity="0.75"/>
<stop offset="0.541667" stop-color="#FFDDAA"/>
<stop offset="0.84375" stop-color="#884411" stop-opacity="0.75"/>
</linearGradient>
<linearGradient id="paint1_linear" x1="92.3373" y1="8.19416" x2="92.3373" y2="43.8239" gradientUnits="userSpaceOnUse">
<stop stop-color="#FFDDAA"/>
<stop offset="0.260417" stop-color="#884411" stop-opacity="0.75"/>
<stop offset="0.541667" stop-color="#FFDDAA"/>
<stop offset="0.84375" stop-color="#884411" stop-opacity="0.75"/>
</linearGradient>
<linearGradient id="paint2_linear" x1="92.3373" y1="8.19416" x2="92.3373" y2="43.8239" gradientUnits="userSpaceOnUse">
<stop stop-color="#FFDDAA"/>
<stop offset="0.260417" stop-color="#884411" stop-opacity="0.75"/>
<stop offset="0.541667" stop-color="#FFDDAA"/>
<stop offset="0.84375" stop-color="#884411" stop-opacity="0.75"/>
</linearGradient>
<linearGradient id="paint3_linear" x1="92.3373" y1="8.19416" x2="92.3373" y2="43.8239" gradientUnits="userSpaceOnUse">
<stop stop-color="#FFDDAA"/>
<stop offset="0.260417" stop-color="#884411" stop-opacity="0.75"/>
<stop offset="0.541667" stop-color="#FFDDAA"/>
<stop offset="0.84375" stop-color="#884411" stop-opacity="0.75"/>
</linearGradient>
<linearGradient id="paint4_linear" x1="92.3373" y1="8.19416" x2="92.3373" y2="43.8239" gradientUnits="userSpaceOnUse">
<stop stop-color="#FFDDAA"/>
<stop offset="0.260417" stop-color="#884411" stop-opacity="0.75"/>
<stop offset="0.541667" stop-color="#FFDDAA"/>
<stop offset="0.84375" stop-color="#884411" stop-opacity="0.75"/>
</linearGradient>
<linearGradient id="paint5_linear" x1="92.3373" y1="8.19416" x2="92.3373" y2="43.8239" gradientUnits="userSpaceOnUse">
<stop stop-color="#FFDDAA"/>
<stop offset="0.260417" stop-color="#884411" stop-opacity="0.75"/>
<stop offset="0.541667" stop-color="#FFDDAA"/>
<stop offset="0.84375" stop-color="#884411" stop-opacity="0.75"/>
</linearGradient>
<linearGradient id="paint6_linear" x1="182.447" y1="55.3351" x2="182.447" y2="90.9649" gradientUnits="userSpaceOnUse">
<stop stop-color="#FFDDAA"/>
<stop offset="0.260417" stop-color="#884411" stop-opacity="0.75"/>
<stop offset="0.541667" stop-color="#FFDDAA"/>
<stop offset="0.84375" stop-color="#884411" stop-opacity="0.75"/>
</linearGradient>
<linearGradient id="paint7_linear" x1="182.447" y1="55.3351" x2="182.447" y2="90.9649" gradientUnits="userSpaceOnUse">
<stop stop-color="#FFDDAA"/>
<stop offset="0.260417" stop-color="#884411" stop-opacity="0.75"/>
<stop offset="0.541667" stop-color="#FFDDAA"/>
<stop offset="0.84375" stop-color="#884411" stop-opacity="0.75"/>
</linearGradient>
<linearGradient id="paint8_linear" x1="182.447" y1="55.3351" x2="182.447" y2="90.9649" gradientUnits="userSpaceOnUse">
<stop stop-color="#FFDDAA"/>
<stop offset="0.260417" stop-color="#884411" stop-opacity="0.75"/>
<stop offset="0.541667" stop-color="#FFDDAA"/>
<stop offset="0.84375" stop-color="#884411" stop-opacity="0.75"/>
</linearGradient>
<linearGradient id="paint9_linear" x1="182.447" y1="55.3351" x2="182.447" y2="90.9649" gradientUnits="userSpaceOnUse">
<stop stop-color="#FFDDAA"/>
<stop offset="0.260417" stop-color="#884411" stop-opacity="0.75"/>
<stop offset="0.541667" stop-color="#FFDDAA"/>
<stop offset="0.84375" stop-color="#884411" stop-opacity="0.75"/>
</linearGradient>
<linearGradient id="paint10_linear" x1="182.447" y1="55.3351" x2="182.447" y2="90.9649" gradientUnits="userSpaceOnUse">
<stop stop-color="#FFDDAA"/>
<stop offset="0.260417" stop-color="#884411" stop-opacity="0.75"/>
<stop offset="0.541667" stop-color="#FFDDAA"/>
<stop offset="0.84375" stop-color="#884411" stop-opacity="0.75"/>
</linearGradient>
<linearGradient id="paint11_linear" x1="182.447" y1="55.3351" x2="182.447" y2="90.9649" gradientUnits="userSpaceOnUse">
<stop stop-color="#FFDDAA"/>
<stop offset="0.260417" stop-color="#884411" stop-opacity="0.75"/>
<stop offset="0.541667" stop-color="#FFDDAA"/>
<stop offset="0.84375" stop-color="#884411" stop-opacity="0.75"/>
</linearGradient>
<linearGradient id="paint12_linear" x1="182.447" y1="55.3351" x2="182.447" y2="90.9649" gradientUnits="userSpaceOnUse">
<stop stop-color="#FFDDAA"/>
<stop offset="0.260417" stop-color="#884411" stop-opacity="0.75"/>
<stop offset="0.541667" stop-color="#FFDDAA"/>
<stop offset="0.84375" stop-color="#884411" stop-opacity="0.75"/>
</linearGradient>
<linearGradient id="paint13_linear" x1="182.447" y1="55.3351" x2="182.447" y2="90.9649" gradientUnits="userSpaceOnUse">
<stop stop-color="#FFDDAA"/>
<stop offset="0.260417" stop-color="#884411" stop-opacity="0.75"/>
<stop offset="0.541667" stop-color="#FFDDAA"/>
<stop offset="0.84375" stop-color="#884411" stop-opacity="0.75"/>
</linearGradient>
<linearGradient id="paint14_linear" x1="182.447" y1="55.3351" x2="182.447" y2="90.9649" gradientUnits="userSpaceOnUse">
<stop stop-color="#FFDDAA"/>
<stop offset="0.260417" stop-color="#884411" stop-opacity="0.75"/>
<stop offset="0.541667" stop-color="#FFDDAA"/>
<stop offset="0.84375" stop-color="#884411" stop-opacity="0.75"/>
</linearGradient>
</defs>
</svg>
